<?xml version="1.0" encoding="UTF-8" standalone="no"?>
<svg
   version="1.1"
   id="Layer_1"
   x="0px"
   y="0px"
   width="53590.031"
   viewBox="0 0 53590.031 80405.352"
   enable-background="new 0 0 414 507"
   xml:space="preserve"
   height="80405.352"
   xmlns="http://www.w3.org/2000/svg"
   xmlns:svg="http://www.w3.org/2000/svg"><defs
   id="defs45" />













































<g
   id="g1"
   transform="matrix(0.33852114,0,0,0.33852114,-53165.12,-92457.802)"><path
     d="m 375.13812,329.13635 c -17.21121,46.25495 -43.5798,85.61188 -81.98218,116.46237 -24.6481,19.80106 -52.19383,34.34726 -81.99238,44.68897 -1.98551,0.68906 -4.6491,0.60321 -6.65079,-0.10358 C 130.90379,464.19263 77.835388,415.97293 46.792984,344.0278 27.735336,299.85904 18.508032,253.34842 17.527122,205.60644 16.27466,144.64766 17.223368,83.643654 17.223368,22.281525 c 126.941422,0 254.277822,0 381.906602,0 0.0403,0.663612 0.11255,1.287199 0.11106,1.910604 -0.146,59.986605 0.42807,119.986781 -0.69446,179.955191 -0.79843,42.65416 -8.32178,84.42699 -23.40845,124.98903 M 193.18925,161.60556 c 0.1875,0.20262 0.41567,0.33527 0.88974,1.30005 1.74535,53.61095 2.99097,107.2442 5.38392,160.82623 2.16804,48.54617 0.5897,97.27548 6.65666,146.31616 0.24968,0.47944 0.49937,0.95884 0.74905,1.43827 0.36722,-0.51917 0.73444,-1.03833 1.1198,-2.48578 -0.002,-100.35721 -0.004,-200.71439 -0.005,-301.07158 -6e-5,-6.26653 0.50521,-6.84494 6.77211,-6.87712 9.81893,-0.0504 19.63927,-0.0624 29.45688,0.0681 1.92607,0.0256 3.84253,0.77216 5.84606,1.84448 0.6727,0.57984 1.34538,1.15969 2.01808,1.73952 0.27066,-0.34094 0.81617,-0.93443 0.7702,-0.98446 -0.56993,-0.62026 -1.22595,-1.16141 -1.81122,-2.54345 -2.13431,-0.86604 -4.23587,-2.36683 -6.40907,-2.47892 -6.47988,-0.33426 -12.98819,-0.0911 -19.48464,-0.15352 -1.28262,-0.0123 -3.27244,0.0654 -3.72813,-0.65868 -3.13907,-4.98785 -9.88702,-8.1133 -7.92886,-15.85194 0.66694,-2.63582 -0.14543,-5.62902 -0.16796,-8.45981 -0.0457,-5.74265 -0.0136,-11.48589 -0.0136,-17.04103 -4.11363,0 -7.04661,0 -10.72607,0 0,6.76782 0.0882,13.24087 -0.0234,19.71046 -0.12541,7.26306 1.01035,15.02173 -6.64949,19.75388 -1.53131,0.94601 -3.14088,2.38681 -4.76297,2.45575 -6.65173,0.28268 -13.34238,-0.1716 -19.97524,0.28155 -2.41819,0.16523 -4.7153,2.1026 -7.60578,3.60135 0.0745,0.78034 0.1491,1.56066 0.22366,2.34099 0.74713,-0.79587 1.49425,-1.59175 3.03239,-2.67741 8.72817,-0.24877 17.45632,-0.49753 26.37329,-0.39307 m 57.82052,11.60356 c -0.9424,-3.68707 -0.23989,-8.73419 -5.86352,-9.03004 -6.60809,-0.34766 -13.24848,-0.0814 -20.38909,-0.0814 -2.74813,85.77391 -5.48273,171.12561 -8.21734,256.47729 0.36854,0.0467 0.73708,0.0933 1.10563,0.14002 10.38276,-24.39661 20.76553,-48.79322 31.38543,-73.74701 -6.65831,0 -12.71768,0 -19.54614,0 15.23944,-28.64402 30.14447,-56.65946 45.45392,-85.43509 -6.2706,0 -11.37521,0 -16.40399,0 -0.10959,-0.67108 -0.29505,-1.03739 -0.1911,-1.2793 11.4931,-26.74469 22.98572,-53.48965 34.60382,-80.18004 0.45331,-1.04147 2.11282,-2.20587 3.22085,-2.21654 15.13514,-0.14585 30.27213,-0.0982 46.18952,-0.0982 -12.62073,22.34777 -24.91205,44.11223 -37.65286,66.67263 6.7803,0 12.65835,0 19.4093,0 -14.13803,23.76999 -27.81177,46.7594 -42.02106,70.64926 8.16644,0 15.02206,0 22.48859,0 -1.33783,1.93799 -2.24784,3.28378 -3.18521,4.6102 -27.58539,39.03274 -55.17568,78.06207 -82.7522,117.1011 -0.95214,1.3479 -2.37847,2.71802 -2.55399,4.19977 -1.20784,10.19601 -2.14126,20.42456 -3.16325,30.64554 0.44056,0.0546 0.7998,0.21277 1.0632,0.11441 3.27277,-1.22244 6.54543,-2.44739 9.79198,-3.73749 57.16394,-22.71558 100.95117,-60.43912 129.47204,-115.32675 23.33875,-44.91474 34.05094,-93.21744 35.37854,-143.28093 1.54148,-58.12773 0.7836,-116.316468 1.00849,-174.478779 0.004,-0.96127 -0.18586,-1.923283 -0.30164,-3.043898 -120.97668,0 -241.75169,0 -362.750521,0 -0.100895,1.323023 -0.26249,2.45194 -0.262228,3.580816 0.01206,52.166378 -0.312205,104.336041 0.179176,156.498031 0.360676,38.28737 5.260063,76.04345 16.645525,112.781 16.220997,52.34034 44.281669,96.60712 88.545288,129.77802 6.85785,5.13925 14.12601,9.73095 20.72583,14.24826 5.03218,-22.60047 10.10809,-44.6055 14.78381,-66.69528 2.7844,-13.15458 5.51577,-26.36933 7.20291,-39.6923 1.45232,-11.46841 0.59795,-23.13302 -4.92173,-33.64575 -12.54088,-23.88531 -32.97997,-35.71417 -59.47005,-37.86715 -10.876648,-0.88404 -20.922775,1.24237 -29.43457,8.46469 -5.550041,4.70923 -9.465836,10.28643 -8.761131,18.11261 0.08498,0.94378 -0.63089,1.95971 -0.975586,2.9422 -1.011887,-0.61881 -2.463852,-0.99353 -2.964371,-1.89597 -3.295029,-5.94089 -7.156887,-11.72305 -9.394989,-18.06482 -6.321182,-17.9114 -0.460659,-34.16344 15.260109,-44.89519 9.734032,-6.64488 20.996307,-9.0249 32.155048,-11.59524 2.73513,-0.63001 4.40345,-1.22922 5.11991,-4.23656 2.64238,-11.09134 9.70135,-18.7716 19.57348,-23.98251 18.30349,-9.66127 38.21209,-10.3136 58.40667,-10.63463 0,2.21686 0,3.93857 0,6.10107 -5.41075,0 -10.5693,-0.27729 -15.68907,0.0507 -17.03477,1.0914 -33.27147,4.92631 -47.38168,15.14919 -5.57731,4.04076 -10.49154,8.7336 -12.0336,15.19449 3.09265,2.57631 6.51455,4.38847 8.44091,7.21861 6.87318,10.09775 16.07274,17.12749 26.81418,22.57675 3.34653,1.69774 6.66201,3.97318 9.14048,6.74523 3.77339,4.22033 2.02815,9.06298 -3.52326,10.00064 -4.04342,0.68298 -8.2691,0.32025 -12.41415,0.35919 -4.4941,0.0422 -8.98888,0.01 -13.64214,0.01 14.94292,5.58997 28.78113,14.0903 36.26596,23.16986 15.03431,18.23743 19.49784,39.84918 16.25977,62.44947 -2.62874,18.34738 -8.23251,36.26223 -12.37752,54.40075 -3.07159,13.44141 -5.99214,26.91904 -8.76091,40.42542 -0.29555,1.44168 0.41232,4.14453 1.43961,4.64221 13.55162,6.56549 27.24415,12.84009 40.52127,19.01083 -5.4764,-103.2922 -6.71808,-205.82965 -11.05097,-308.50085 -6.86647,0 -13.20503,-0.31102 -19.47961,0.18585 -1.93166,0.15295 -4.12103,2.19969 -5.39244,3.95779 -1.07001,1.47957 -0.97922,3.79862 -1.79994,5.72466 0,0 -0.39249,0.0674 -1.01441,-0.33658 -0.45971,-1.06848 -0.97436,-2.11702 -1.3705,-3.20857 -3.46705,-9.55318 0.19591,-14.83278 10.33693,-14.88704 5.49243,-0.0294 10.98519,0.007 16.47768,-0.0153 2.95142,-0.0119 10.33421,-6.08256 10.37944,-8.97265 0.16052,-10.26142 0.0626,-20.52687 0.0626,-31.04095 -0.69467,-0.0609 -1.98276,0.21784 -2.56659,-0.29899 -1.69551,-1.50098 -4.53201,-3.56919 -4.29011,-4.95601 0.34024,-1.95062 2.94305,-4.82678 4.75976,-4.9677 7.27884,-0.56459 14.64949,-0.52714 21.93482,-9.9e-4 1.73272,0.12513 4.44317,2.92485 4.55702,4.6371 0.11107,1.67063 -2.37409,3.68642 -4.02808,5.21723 -0.6652,0.6157 -2.15234,0.34338 -2.81843,0.42227 0,10.47458 -0.0941,20.59303 0.0554,30.7079 0.0469,3.175 7.32144,9.24106 10.6139,9.25526 6.32442,0.0273 12.65636,-0.15371 18.97133,0.0983 6.31159,0.25191 9.51047,3.94544 8.63434,10.17137 -0.39816,2.8293 -1.96432,5.49425 -3.38858,8.17595 0,0 -0.39163,0.0208 -0.63589,-0.74704 m 25.28958,98.60652 c -12.14191,22.83548 -24.2838,45.67096 -36.76458,69.14374 6.59624,0 12.33596,0 18.70034,0 -8.88802,20.9845 -17.55152,41.43894 -26.21501,61.89337 0.44691,0.26947 0.89382,0.53894 1.34074,0.80841 19.73143,-27.32922 39.46286,-54.65841 59.80511,-82.83371 -7.72726,0 -14.268,0 -21.5838,0 14.13822,-23.77456 27.88993,-46.89923 42.10123,-70.79672 -6.95288,0 -12.68381,0 -18.95593,0 12.43612,-22.11784 24.59631,-43.74495 37.17303,-66.1129 -10.61435,0 -20.23379,-0.13516 -29.8407,0.15067 -1.38714,0.0412 -3.30554,1.8301 -3.97857,3.27563 -7.8584,16.87828 -15.52661,33.84515 -23.24186,50.79007 -2.52432,5.54421 -5.0393,11.09267 -7.91616,17.42647 6.37982,0 11.91305,0 18.02084,0 -2.98968,5.67279 -5.61496,10.65408 -8.64468,16.25497 m -205.024824,-27.042 c -10.949066,10.12883 -11.916325,27.23528 -3.73555,41.39199 7.573517,-13.41974 20.389389,-19.49369 34.223904,-23.14203 13.62126,-3.59211 27.64637,-5.65283 41.06159,-8.3001 -7.29875,-1.80049 -15.36678,-3.54815 -23.28907,-5.80694 -9.74515,-2.77854 -19.45584,-5.88448 -20.412684,-18.53846 -10.064026,3.5131 -19.659828,6.81165 -27.84819,14.39554 m 44.107454,-15.93953 c -3.54221,-1.59356 -7.9817,-3.56668 -10.33119,0.26209 -2.54427,4.14616 1.51947,7.19183 4.58081,9.7894 0.62937,0.53399 1.32195,1.06646 2.07788,1.36689 6.41876,2.55097 12.85892,5.04807 19.29265,7.56133 0.0853,-0.30446 0.17054,-0.6089 0.25579,-0.91336 -5.10051,-5.86354 -10.20104,-11.72708 -15.87594,-18.06635 M 195.08527,110.1388 c 0.77026,0.71814 1.52589,2.04074 2.31309,2.05983 6.97307,0.169 13.95314,0.17365 20.92694,0.0271 0.85367,-0.0179 1.6826,-1.21199 2.523,-1.861 -1.05657,-0.78554 -2.08362,-2.19831 -3.17475,-2.24967 -5.13966,-0.24197 -10.30233,-0.24996 -15.44546,-0.0501 -2.34773,0.0912 -4.66933,0.85515 -7.14282,2.07384 M 134.0284,263.039 c 6.62666,0.32031 13.25334,0.64063 19.88,0.96094 -0.36256,-1.54419 -0.93222,-2.43964 -1.5226,-2.45349 -6.38878,-0.15003 -12.78079,-0.16263 -19.17172,-0.14249 -0.015,3e-5 -0.0268,1.03723 0.81432,1.63504 z"
     id="path4"
     style="fill:#d0d0ce;fill-opacity:1" /><path
     fill="#1B1C1C"
     opacity="1"
     stroke="none"
     d="m 163.82898,162.15012 c 0.7045,-0.14763 1.13995,-0.11034 1.88568,0.0326 -0.43684,0.90155 -1.18396,1.69743 -1.93109,2.4933 -0.0746,-0.78033 -0.14911,-1.56065 0.0454,-2.52592 z"
     id="path12"
     style="fill:#d0d0ce;fill-opacity:1" /><path
     fill="#1B1C1C"
     opacity="1"
     stroke="none"
     d="m 250.01681,162.63521 c 0.12099,-0.40103 0.28328,-0.47293 0.70769,-0.59178 0.89597,0.51457 1.55199,1.05572 2.12192,1.67598 0.046,0.05 -0.49954,0.64352 -0.7702,0.98446 -0.6727,-0.57983 -1.34538,-1.15968 -2.05941,-2.06866 z"
     id="path13"
     style="fill:#d0d0ce;fill-opacity:1" /><path
     fill="#1B1C1C"
     opacity="1"
     stroke="none"
     d="m 206.19937,469.70483 c 0.43602,-0.1206 0.79227,0.10202 1.45969,0.2743 -0.056,0.46881 -0.42322,0.98797 -0.79044,1.50714 -0.24968,-0.47943 -0.49937,-0.95883 -0.66925,-1.78144 z"
     id="path14"
     style="fill:#d0d0ce;fill-opacity:1" /><path
     fill="#1B1C1C"
     opacity="1"
     stroke="none"
     d="m 251.83963,173.98508 c -0.0831,0.19123 -0.36018,0.35356 -0.61144,0.25389 0.0258,-0.26201 0.41747,-0.28281 0.61144,-0.25389 z"
     id="path15"
     style="fill:#d0d0ce;fill-opacity:1" /><path
     fill="#1B1C1C"
     opacity="1"
     stroke="none"
     d="m 164.53796,173.9662 c -0.0363,0.19631 -0.2715,0.38194 -0.54898,0.31212 -0.0423,-0.25545 0.35018,-0.3228 0.54898,-0.31212 z"
     id="path16"
     style="fill:#d0d0ce;fill-opacity:1" /><path
     fill="#1B1C1C"
     opacity="1"
     stroke="none"
     d="m 193.09485,161.42895 c 0.21789,-0.10636 0.53018,-0.0361 0.8107,0.30433 -0.30063,0.20755 -0.5288,0.0749 -0.8107,-0.30433 z"
     id="path17"
     style="fill:#d0d0ce;fill-opacity:1" /><path
     fill="#060708"
     opacity="1"
     stroke="none"
     d="m 247.00018,42.665466 c 11.4635,0.422425 22.45746,0.485989 33.37818,1.41272 5.80261,0.492416 10.81317,3.408932 13.05639,9.444027 2.83265,7.620823 -0.23776,14.512341 -7.81421,17.449764 -1.95391,0.757546 -4.00857,1.255371 -6.06515,2.638848 1.00851,0.13356 2.02347,0.230545 3.02451,0.406501 7.42797,1.305619 9.64544,3.469414 10.7644,10.918961 0.41849,2.786049 0.33502,5.643715 0.62231,8.454224 0.34287,3.354324 0.83802,6.693089 1.32459,10.486269 -8.67417,0 -17.92041,0.1766 -27.1463,-0.17806 -1.49521,-0.0575 -3.73166,-2.24818 -4.16233,-3.846997 -0.75332,-2.796356 -0.61483,-5.914437 -0.42135,-8.869652 0.68615,-10.479569 -1.39469,-12.646004 -12.53375,-12.195435 0,8.058586 0,16.153954 0,24.667314 -9.94561,0 -19.50916,0 -29.47309,0 0,-19.940232 0,-40.127725 0,-60.788476 8.36632,0 16.65605,0 25.4458,-8e-6 m 9.28644,24.165688 c 1.96784,-0.276497 4.22543,-0.04527 5.82883,-0.960358 1.92523,-1.098778 4.64203,-3.241619 4.56357,-4.809639 -0.0998,-1.994186 -2.29959,-4.875953 -4.23822,-5.566597 -3.41541,-1.216739 -7.31894,-1.063282 -11.20432,-1.504669 0,4.705627 0,8.588997 0,12.850845 1.57884,0 2.86879,0 5.05014,-0.0096 z"
     id="path18"
     style="fill:#d0d0ce;fill-opacity:1" /><path
     fill="#060708"
     opacity="1"
     stroke="none"
     d="m 141.38725,45.199471 c 16.11043,-5.957386 31.96208,-6.049878 47.77761,-0.555394 8.13253,2.825333 13.08694,8.579544 13.45278,17.406308 0.30991,7.477256 0.42833,14.993675 0.0289,22.460533 -0.41796,7.813774 -4.59203,13.651245 -11.85054,16.531322 -16.47217,6.53592 -33.15229,6.57084 -49.62157,3e-4 -6.82506,-2.722899 -11.15402,-8.186446 -11.63637,-15.591414 -0.52869,-8.116623 -0.5072,-16.313682 -0.0458,-24.437088 0.42299,-7.447925 4.84008,-12.546902 11.89499,-15.814567 m 30.75817,13.793399 c -0.36261,-4.234565 -3.03119,-5.643684 -6.84937,-5.399543 -4.17665,0.267067 -5.60913,2.957706 -5.60818,6.769508 0.002,8.460667 0.0309,16.921513 -0.0156,25.381931 -0.0237,4.305901 1.63386,7.064682 6.28306,7.167755 4.25951,0.09444 6.15909,-2.029434 6.20082,-7.120292 0.0707,-8.626 0.0185,-17.253022 -0.0107,-26.799359 z"
     id="path19"
     style="fill:#d0d0ce;fill-opacity:1" /><path
     fill="#070809"
     opacity="1"
     stroke="none"
     d="m 62.470299,104.75385 c -2.853787,-0.65558 -5.344509,-1.05413 -7.687737,-1.87413 -9.854103,-3.448415 -16.180416,-9.732755 -16.134472,-20.857137 0.02815,-6.815582 -0.0513,-13.640564 0.280739,-20.4436 0.388859,-7.967209 4.753189,-13.564621 11.991821,-16.349296 16.344006,-6.287472 32.968373,-6.403931 49.2509,-4.08e-4 8.06034,3.169937 12.2386,9.818676 12.35275,19.058364 -10.12846,0 -20.03727,0 -30.185982,0 -0.181687,-1.855369 -0.292923,-3.646362 -0.543739,-5.417594 -0.536232,-3.786877 -2.843331,-5.458031 -6.581391,-5.314236 -3.820778,0.14698 -5.937507,2.252426 -5.992035,5.952679 -0.135071,9.164146 -0.140465,18.333129 0.0029,27.497024 0.05822,3.720871 2.287941,5.769264 6.055161,5.900833 3.702911,0.129311 6.064987,-1.552711 6.585518,-5.334404 0.267425,-1.942856 0.316047,-3.915832 0.47924,-6.083626 10.087372,0 19.996358,0 29.901848,0 0.10863,9.546074 -4.35718,16.595353 -12.927185,20.142741 -11.778481,4.87547 -24.070648,4.4857 -36.848358,3.12279 z"
     id="path20"
     style="fill:#d0d0ce;fill-opacity:1" /><path
     fill="#090A0B"
     opacity="1"
     stroke="none"
     d="m 315.33343,97.815063 c -9e-5,-18.448364 -9e-5,-36.420192 -9e-5,-54.775123 20.84131,0 41.37451,0 62.16635,0 0,4.458187 0,8.875858 0,13.765591 -10.68408,0 -21.25961,0 -32.12503,0 0,3.351863 0,6.241554 0,9.533138 9.68705,0 19.28418,0 29.21128,0 0,4.598472 0,8.817001 0,13.427421 -9.57047,0 -19.1648,0 -29.13333,0 0,3.255608 0,6.137124 0,9.533913 10.46481,0 21.02935,0 31.94766,0 0,5.018791 0,9.545128 0,14.332247 -20.55213,0 -40.97827,0 -62.06674,0 0,-1.80327 0,-3.57196 -10e-5,-5.817187 z"
     id="path21"
     style="fill:#d0d0ce;fill-opacity:1" /><path
     fill="#0F1010"
     opacity="1"
     stroke="none"
     d="m 151.54469,211.47662 c 12.57785,-1.48086 24.74954,-2.85447 37.39371,-4.2814 0,3.18083 0,5.19557 0,7.12869 -4.95682,0 -9.73346,0.0642 -14.50717,-0.0261 -2.52315,-0.0477 -4.0099,0.52759 -5.13428,3.27016 -3.57982,8.73202 -13.17891,11.29666 -19.85556,4.80673 -3.84299,-3.73553 -6.7484,-3.44054 -10.77359,-1.4225 -1.2001,0.60168 -2.9072,0.19214 -4.38199,0.24594 0.69979,-1.30954 1.08116,-3.32115 2.15416,-3.8078 4.79169,-2.17326 9.78079,-3.91123 15.10472,-5.9137 m 3.35747,9.49216 c 4.24986,0.4689 7.12306,-0.89751 8.23438,-6.25337 -4.87552,0.96948 -8.90172,1.77006 -12.92791,2.57065 -0.0453,0.39614 -0.0906,0.79229 -0.13591,1.18846 1.35329,0.77821 2.70656,1.55642 4.82944,2.49426 z"
     id="path22"
     style="fill:#d0d0ce;fill-opacity:1" /><path
     fill="#0F1010"
     opacity="1"
     stroke="none"
     d="m 250.10345,200.90956 c 6.76374,4.86395 13.17749,9.5928 19.65461,14.23326 3.15002,2.25679 3.8092,4.72452 0.76098,8.0802 -1.96045,-1.80546 -3.919,-3.69084 -5.96332,-5.47812 -10.10557,-8.83494 -21.41542,-15.77293 -33.82334,-20.82357 -3.40235,-1.38492 -4.75519,-3.18448 -3.33181,-7.70638 7.55426,3.88974 14.96663,7.70644 22.70288,11.69461 z"
     id="path23"
     style="fill:#d0d0ce;fill-opacity:1" /><path
     d="m 37.88759,140.9456 v -20.01 h 9.744 q 4.872,0 4.872,4.872 v 3.886 q 0,4.872 -4.872,4.872 h -5.568 v 6.38 z m 4.176,-10.15 h 5.394 q 0.87,0 0.87,-0.87 v -4.35 q 0,-0.87 -0.87,-0.87 h -5.394 z m 21.036014,5.278 v -10.266 q 0,-4.872 4.872,-4.872 h 6.612 q 4.872,0 4.872,4.872 v 10.266 q 0,4.872 -4.872,4.872 h -6.612 q -4.872,0 -4.872,-4.872 z m 4.176,0.232 q 0,0.87 0.87,0.87 h 6.264 q 0.87,0 0.87,-0.87 v -10.73 q 0,-0.87 -0.87,-0.87 h -6.264 q -0.87,0 -0.87,0.87 z m 23.646006,4.64 v -20.01 h 4.176 v 16.24 h 8.642 v 3.77 z m 22.89201,0 v -20.01 h 4.176 v 20.01 z m 15.64202,-4.872 v -10.266 q 0,-4.872 4.872,-4.872 h 7.743 l 1.943,1.508 v 2.262 h -9.512 q -0.87,0 -0.87,0.87 v 10.73 q 0,0.87 0.87,0.87 h 9.512 v 2.262 l -1.943,1.508 h -7.743 q -4.872,0 -4.872,-4.872 z m 25.38601,4.872 v -20.01 h 4.176 v 20.01 z m 14.07602,-0.783 5.945,-19.227 h 6.38 l 5.945,19.227 -0.522,0.783 h -3.48 l -1.218,-4.06 h -7.83 l -1.218,4.06 h -3.48 z m 6.351,-7.047 h 5.568 l -2.552,-8.41 h -0.464 z"
     id="text45"
     style="font-weight:bold;font-size:29px;line-height:0px;font-family:Oxanium;-inkscape-font-specification:'Oxanium Bold';letter-spacing:7px;fill:#d0d0ce;stroke-width:2.51597"
     aria-label="POLICIA" /><g
     id="text46"
     style="font-weight:bold;font-size:29px;line-height:0px;font-family:Oxanium;-inkscape-font-specification:'Oxanium Bold';letter-spacing:6.75px;fill:#d0d0ce"
     aria-label="CIVIL-RJ"><path
       d="m 227.52722,135.9335 v -10.266 q 0,-4.872 4.872,-4.872 h 7.743 l 1.943,1.508 v 2.262 h -9.512 q -0.87,0 -0.87,0.87 v 10.73 q 0,0.87 0.87,0.87 h 9.512 v 2.262 l -1.943,1.508 h -7.743 q -4.872,0 -4.872,-4.872 z m 25.13602,4.872 v -20.01 h 4.176 v 20.01 z m 13.82601,-19.227 0.522,-0.783 h 3.683 l 4.553,16.24 h 0.464 l 4.582,-16.24 h 3.654 l 0.522,0.783 -5.684,19.227 h -6.612 z m 27.63001,19.227 v -20.01 h 4.176 v 20.01 z"
       id="path1" /><path
       style="letter-spacing:2.6px"
       d="m 309.80128,140.8055 v -20.01 h 4.176 v 16.24 h 8.642 v 3.77 z m 17.274,-7.134 v -3.422 h 8.7 v 3.422 z"
       id="path2" /><path
       d="m 341.91326,140.8055 v -20.01 h 9.744 q 4.872,0 4.872,4.872 v 3.306 q 0,3.625 -2.697,4.524 l 3.277,6.438 -0.493,0.87 h -3.596 l -3.538,-6.96 h -3.393 v 6.96 z m 4.176,-10.73 h 5.394 q 0.87,0 0.87,-0.87 v -3.77 q 0,-0.87 -0.87,-0.87 h -5.394 z m 20.49603,5.858 v -3.828 h 4.176 v 4.06 q 0,0.87 0.87,0.87 h 3.944 q 0.87,0 0.87,-0.87 v -11.6 h -5.452 v -3.77 h 9.628 v 15.138 q 0,4.872 -4.872,4.872 h -4.292 q -4.872,0 -4.872,-4.872 z"
       id="path3" /></g></g></svg>
